<svg width="229" height="213" viewBox="0 0 229 213" fill="none" xmlns="http://www.w3.org/2000/svg">
<path d="M104.137 62.2494C105.115 64.2045 106.288 67.235 108.927 67.235C111.371 67.235 113.033 65.7687 113.033 63.4225C113.033 61.2718 112.74 54.5265 112.153 52.6691C111.665 51.2027 110.296 50.2252 108.927 49.4431C102.573 45.1418 93.8726 42.9911 86.2475 42.9911C65.0341 42.9911 45.8736 59.6099 45.8736 81.5076C45.8736 103.21 63.6655 117.482 84.3901 117.482C91.1354 117.482 98.2717 115.821 104.039 112.399C107.656 110.248 114.206 105.263 114.206 100.57C114.206 98.713 112.642 97.1489 110.785 97.1489C108.341 97.1489 106.386 99.6906 104.821 101.255C100.325 105.947 94.0681 108.88 87.9094 108.88C80.5776 108.88 73.8323 105.849 69.922 99.3973C66.696 93.9229 64.9363 85.9067 64.9363 79.5525C64.9363 72.4162 66.4027 65.3776 70.5085 59.4144C74.5166 53.6467 80.4798 50.1274 87.4206 50.1274C91.0377 50.1274 94.948 51.3983 98.0762 53.8422C101.302 56.2862 102.475 58.7301 104.137 62.2494Z" fill="#155029"/>
<path d="M152.931 138.785L139.245 103.69C137.778 99.7799 137.29 96.7494 132.597 96.7494H113.534C110.993 96.7494 107.962 96.8471 107.962 100.073C107.962 102.419 109.82 102.908 111.677 103.495C114.023 104.179 115.099 105.45 115.49 107.112C115.783 107.894 115.783 108.774 115.783 109.165V156.088C115.685 157.261 115.49 158.435 115.196 159.314C114.512 161.074 113.046 161.465 111.482 162.052C109.82 162.736 109.038 163.42 109.038 165.278C109.038 168.601 113.437 168.308 115.685 168.308H124.19C126.438 168.308 130.838 168.601 130.838 165.278C130.838 163.42 130.056 162.736 128.394 162.052C126.83 161.465 125.363 161.074 124.679 159.314C124.386 158.435 124.19 157.261 124.092 156.088V114.541L141.298 154.817C143.057 158.63 144.328 158.923 148.63 158.923C153.615 158.923 154.006 156.87 155.766 152.765L171.603 113.466V155.893C171.603 157.946 171.994 160.194 169.843 161.269L168.768 161.856C167.497 162.638 166.421 163.225 166.421 164.984C166.421 167.624 169.061 168.308 171.212 168.308H189.786C191.936 168.308 194.576 167.624 194.576 164.984C194.576 163.225 193.5 162.638 192.229 161.856L191.154 161.269C189.003 160.194 189.394 157.946 189.394 155.893V108.676C189.394 106.134 189.59 104.668 192.229 103.886C194.087 103.299 196.042 102.713 196.042 100.269C196.042 98.0202 194.576 96.7494 192.718 96.7494H174.535C170.136 96.7494 169.745 97.8247 168.083 101.833L152.931 138.785Z" fill="#155029"/>
<path d="M93.1655 8L223 101.175M6 96.6984L133.5 206" stroke="#155029" stroke-width="18"/>
</svg>
